<svg width="72" height="72" viewBox="0 0 72 72" fill="none" xmlns="http://www.w3.org/2000/svg">
<rect width="72" height="72" rx="36" fill="#CBE4FD"/>
<path d="M36.0015 45.9542C37.6759 45.9542 39.0333 44.5968 39.0333 42.9224C39.0333 41.248 37.6759 39.8906 36.0015 39.8906C34.3271 39.8906 32.9697 41.248 32.9697 42.9224C32.9697 44.5968 34.3271 45.9542 36.0015 45.9542Z" fill="#4D6B8C"/>
<path d="M47.6831 31.4101V29.0851C47.6831 24.0631 46.4741 17.4043 36.0023 17.4043C25.5305 17.4043 24.3215 24.0631 24.3215 29.0851V31.4101C19.1135 32.0611 17.4023 34.7023 17.4023 41.1937V44.6533C17.4023 52.2793 19.7273 54.6043 27.3533 54.6043H44.6513C52.2773 54.6043 54.6023 52.2793 54.6023 44.6533V41.1937C54.6023 34.7023 52.8911 32.0611 47.6831 31.4101ZM36.0023 48.5407C32.8961 48.5407 30.3851 46.0111 30.3851 42.9235C30.3851 39.8173 32.9147 37.3063 36.0023 37.3063C39.0899 37.3063 41.6195 39.8359 41.6195 42.9235C41.6195 46.0297 39.1085 48.5407 36.0023 48.5407ZM27.3533 31.2427C27.2045 31.2427 27.0743 31.2427 26.9255 31.2427V29.0851C26.9255 23.6353 28.4693 20.0083 36.0023 20.0083C43.5353 20.0083 45.0791 23.6353 45.0791 29.0851V31.2613C44.9303 31.2613 44.8001 31.2613 44.6513 31.2613H27.3533V31.2427Z" fill="#4D6B8C"/>
</svg>
