<svg width="38" height="38" viewBox="0 0 38 38" fill="none" xmlns="http://www.w3.org/2000/svg">
<path d="M30.6831 14.4101V12.0851C30.6831 7.0631 29.4741 0.404297 19.0023 0.404297C8.53054 0.404297 7.32154 7.0631 7.32154 12.0851V14.4101C2.11354 15.0611 0.402344 17.7023 0.402344 24.1937V27.6533C0.402344 35.2793 2.72734 37.6043 10.3533 37.6043H27.6513C35.2773 37.6043 37.6023 35.2793 37.6023 27.6533V24.1937C37.6023 17.7023 35.8911 15.0611 30.6831 14.4101ZM19.0023 31.5407C15.8961 31.5407 13.3851 29.0111 13.3851 25.9235C13.3851 22.8173 15.9147 20.3063 19.0023 20.3063C22.0899 20.3063 24.6195 22.8359 24.6195 25.9235C24.6195 29.0297 22.1085 31.5407 19.0023 31.5407ZM10.3533 14.2427C10.2045 14.2427 10.0743 14.2427 9.92554 14.2427V12.0851C9.92554 6.6353 11.4693 3.0083 19.0023 3.0083C26.5353 3.0083 28.0791 6.6353 28.0791 12.0851V14.2613C27.9303 14.2613 27.8001 14.2613 27.6513 14.2613H10.3533V14.2427Z" fill="#4D6B8C"/>
</svg>
