<svg width="126" height="126" viewBox="0 0 126 126" fill="none" xmlns="http://www.w3.org/2000/svg">
<path d="M63 62.9991C77.4075 62.9991 89.087 51.3196 89.087 36.9122C89.087 22.5047 77.4075 10.8252 63 10.8252C48.5926 10.8252 36.9131 22.5047 36.9131 36.9122C36.9131 51.3196 48.5926 62.9991 63 62.9991Z" stroke="#20466F" stroke-width="5" stroke-linecap="round" stroke-linejoin="round"/>
<path d="M18.1826 115.173C18.1826 94.9818 38.2696 78.6514 63 78.6514C68.0087 78.6514 72.8609 79.3296 77.4 80.5818" stroke="#20466F" stroke-width="5" stroke-linecap="round" stroke-linejoin="round"/>
<path d="M115.175 94.3041C115.175 95.9737 114.966 97.5911 114.549 99.1563C114.079 101.243 113.244 103.278 112.149 105.052C108.549 111.104 101.923 115.174 94.3051 115.174C88.9312 115.174 84.079 113.139 80.4268 109.8C78.8616 108.443 77.505 106.826 76.4616 105.052C74.5311 101.922 73.4355 98.2172 73.4355 94.3041C73.4355 88.6694 75.6791 83.5042 79.3312 79.7477C83.1399 75.8347 88.4616 73.4346 94.3051 73.4346C100.462 73.4346 106.044 76.0955 109.801 80.3738C113.14 84.0781 115.175 88.9824 115.175 94.3041Z" stroke="#20466F" stroke-width="5" stroke-miterlimit="10" stroke-linecap="round" stroke-linejoin="round"/>
<path d="M102.079 94.1992H86.5312" stroke="#20466F" stroke-width="5" stroke-miterlimit="10" stroke-linecap="round" stroke-linejoin="round"/>
<path d="M94.3047 86.582V102.182" stroke="#20466F" stroke-width="5" stroke-miterlimit="10" stroke-linecap="round" stroke-linejoin="round"/>
</svg>
