<svg width="98" height="98" viewBox="0 0 98 98" fill="none" xmlns="http://www.w3.org/2000/svg">
<path d="M65.8441 36.5916L54.3598 48.076C54.0535 48.3822 53.7473 48.6885 53.2879 48.8416C51.4504 49.9135 49.1535 49.6072 47.6223 48.076L36.1379 36.5916C34.3004 34.7541 34.3004 31.8447 36.1379 30.0072L47.6223 18.5229C48.6941 17.7572 49.9191 17.2979 51.1441 17.2979C51.9098 17.2979 52.6754 17.451 53.441 17.9104C53.7473 18.0635 54.2066 18.3697 54.5129 18.676L65.9973 30.1604C67.8348 31.8447 67.8348 34.9072 65.8441 36.5916Z" fill="#12AF76"/>
<path d="M53.2879 18.0688C52.6754 17.7625 52.0629 17.6094 51.1441 17.6094C50.991 17.6094 50.8379 17.6094 50.8379 17.6094L52.8285 19.6L62.9348 29.7062H64.9254L54.0535 18.8344C53.9004 18.375 53.5941 18.2219 53.2879 18.0688Z" fill="#009966"/>
<path d="M51.2973 50.2227C49.9191 50.2227 48.541 49.6102 47.4691 48.6915L35.9848 37.2071C33.841 35.0633 33.841 31.6946 35.9848 29.5508L47.4691 18.0665C49.1535 16.3821 51.9098 16.0758 53.9004 17.1477C54.3598 17.454 54.666 17.6071 55.1254 18.0665L66.6098 29.5508C68.7535 31.6946 68.7535 35.0633 66.6098 37.2071L55.1254 48.6915C54.8191 48.9977 54.3598 49.304 53.9004 49.6102C53.1348 49.9165 52.0629 50.2227 51.2973 50.2227ZM51.2973 17.9133C50.2254 17.9133 49.3066 18.3727 48.541 19.1383L37.0566 30.6227C35.5254 32.154 35.5254 34.604 37.0566 36.1352L48.541 47.6196C49.766 48.8446 51.7566 49.1508 53.2879 48.2321C53.5941 48.079 53.9004 47.7727 54.2066 47.6196L65.691 36.1352C67.2223 34.604 67.2223 32.154 65.691 30.6227L54.2066 19.1383C53.9004 18.8321 53.5941 18.679 53.2879 18.5258C52.6754 18.0665 51.9098 17.9133 51.2973 17.9133Z" fill="black"/>
<path opacity="0.5" d="M58.6437 29.5479C58.6437 29.3947 58.7969 29.3947 58.7969 29.2416L55.1219 25.7197C52.825 28.0166 49.15 28.0166 47.0063 25.7197L43.4844 29.2416C43.4844 29.2416 43.6375 29.3947 43.6375 29.5479H58.6437Z" fill="white"/>
<path d="M47.4691 26.4906C49.6129 28.175 52.9816 28.175 55.1254 26.4906L58.1879 29.5531H60.1785L55.7379 25.1125C55.4316 24.8063 54.9723 24.8063 54.666 25.1125C52.8285 26.95 49.766 26.95 47.9285 25.1125C47.6223 24.8063 47.1629 24.8063 46.8566 25.1125L42.416 29.5531H44.4066L47.4691 26.4906Z" fill="black"/>
<path d="M78.0938 80.8447H22.9688C20.3656 80.8447 18.375 78.8541 18.375 76.251V34.9072C18.375 32.3041 20.3656 30.3135 22.9688 30.3135H78.0938C80.6969 30.3135 82.6875 32.3041 82.6875 34.9072V76.251C82.6875 78.8541 80.6969 80.8447 78.0938 80.8447Z" fill="#B2B1CF" stroke="black" stroke-width="1.53125" stroke-miterlimit="10"/>
<path d="M82.6875 76.251V34.9072C82.6875 32.3041 80.6969 30.3135 78.0938 30.3135H75.0312C77.6344 30.3135 79.625 32.3041 79.625 34.9072V76.251C79.625 78.8541 77.6344 80.8447 75.0312 80.8447H78.0938C80.6969 80.8447 82.6875 78.8541 82.6875 76.251Z" fill="#8E8EB2"/>
<path d="M73.5 67.0635V44.0947C73.5 41.4916 71.5094 39.501 68.9062 39.501H65.8438C68.4469 39.501 70.4375 41.4916 70.4375 44.0947V67.0635C70.4375 69.6666 68.4469 71.6572 65.8438 71.6572H68.9062C71.5094 71.6572 73.5 69.6666 73.5 67.0635Z" fill="#8E8EB2"/>
<path d="M78.0938 80.8447H22.9688C20.3656 80.8447 18.375 78.8541 18.375 76.251V34.9072C18.375 32.3041 20.3656 30.3135 22.9688 30.3135H78.0938C80.6969 30.3135 82.6875 32.3041 82.6875 34.9072V76.251C82.6875 78.8541 80.6969 80.8447 78.0938 80.8447Z" stroke="black" stroke-width="1.53125" stroke-miterlimit="10"/>
<path opacity="0.5" d="M22.2031 46.3916V37.2041C22.2031 35.5197 23.5812 34.1416 25.2656 34.1416" stroke="white" stroke-width="3.0625" stroke-miterlimit="10" stroke-linecap="round"/>
<path opacity="0.5" d="M22.2031 73.9541V64.7666" stroke="white" stroke-width="3.0625" stroke-miterlimit="10" stroke-linecap="round"/>
<path d="M32.1562 71.6572C29.5531 71.6572 27.5625 69.6666 27.5625 67.0635V44.0947C27.5625 41.4916 29.5531 39.501 32.1562 39.501H68.9062C71.5094 39.501 73.5 41.4916 73.5 44.0947V67.0635C73.5 69.6666 71.5094 71.6572 68.9062 71.6572H32.1562Z" stroke="black" stroke-width="1.53125" stroke-miterlimit="10"/>
<path opacity="0.5" d="M69.6719 64.7666C69.6719 66.451 68.2938 67.8291 66.6094 67.8291" stroke="white" stroke-width="3.0625" stroke-miterlimit="10" stroke-linecap="round"/>
<path opacity="0.5" d="M31.3906 46.3916C31.3906 44.7072 32.7687 43.3291 34.4531 43.3291" stroke="white" stroke-width="3.0625" stroke-miterlimit="10" stroke-linecap="round"/>
<path d="M16.5375 60.9385C15.925 60.9385 15.3125 60.6322 15.3125 59.5604V51.4447C15.3125 50.6791 15.7719 50.2197 16.5375 50.2197H35.9844C37.975 50.2197 39.6594 51.9041 39.6594 53.8947V57.2635C39.6594 59.2541 37.975 60.9385 35.9844 60.9385H16.5375Z" fill="#EDC620" stroke="black" stroke-width="1.53125" stroke-miterlimit="10"/>
<path d="M34.4531 57.876C35.7217 57.876 36.75 56.8476 36.75 55.5791C36.75 54.3106 35.7217 53.2822 34.4531 53.2822C33.1846 53.2822 32.1562 54.3106 32.1562 55.5791C32.1562 56.8476 33.1846 57.876 34.4531 57.876Z" stroke="black" stroke-width="1.53125" stroke-miterlimit="10"/>
<path opacity="0.5" d="M78.8594 73.9541C78.8594 75.6385 77.4813 77.0166 75.7969 77.0166" stroke="white" stroke-width="3.0625" stroke-miterlimit="10" stroke-linecap="round"/>
</svg>
